<svg id="Capa_1" data-name="Capa 1" xmlns="http://www.w3.org/2000/svg" width="824.742" height="239.47" viewBox="0 0 824.742 239.47"><path d="M922.4,558.37c-2.222,14.842-2.208,15.83-16.685,16.028-35.553.488-71.12-.2-106.68-.085-35.227.116-70.467.15-105.671,1.223-14.434.44-14.786,2.034-14.655,14.765-1.639,14.754,1.306,19.006,14.326,18.964q114.477-.376,228.953-1.042c4.819,10.013.532,20.113-10.067,22.575a67.475,67.475,0,0,1-15,1.325c-92.294.2-184.593.759-276.879-.109-12.113-.115-25.443-5.606-35.907-12.239-13.044-8.268-24.733-19.378-35.115-30.956-12.035-13.423-25.7-22.441-43.662-23.214-16.324-.7-32.717-.32-49.064.148-79.654,2.281-159.3,4.861-238.955,7.091-25.15.7-50.322.756-75.485.842-4.019.014-8.1-1.137-12.053-2.144C110,566.5,100.438,555.6,100,537.795c-.542-21.786,8.534-36.831,28.325-41.283a182.955,182.955,0,0,1,45.828-4.025c85.3,2.853,170.576,6.652,255.87,9.812,24.215.9,48.493,1.54,72.7.822,21.091-.626,40.008-8.4,51.258-27.257,15.44-25.885,38.886-35.712,67.333-38.937,49.928-5.659,99.912-6.253,150.011-4.072,3.162,8.274,8.154,14.718,17.193,17.05,15.341,3.957,35.247-3.969,43.434-17.266,24.2.163,48.393.228,72.585.588,4.02.06,8.879.258,11.81,2.451,3.607,2.7,7.182,7.339,7.759,11.552.418,3.055-3.372,8.7-6.5,9.823-7.55,2.719-15.806,4.775-23.784,4.8-57.247.189-114.495-.218-171.742-.373-8.8-.024-17.661-.315-26.391.552-13.94,1.386-17.67,6.406-16.732,20.52-2,9.276,1.262,14.31,11.212,14.809,7.843.393,15.645,2.118,23.475,2.195,61.353.6,122.708,1.12,184.062,1.167,8.1.007,16.194-2.791,24.291-4.29,2.111,14.827-1.2,19.475-16.094,21.408a132.757,132.757,0,0,1-17.917.678q-89.28-.6-178.557-1.271a106.334,106.334,0,0,0-15.992,1.143c-12.447,1.821-15.62,5.8-15.792,18.892,0,11.678,2.8,15.4,13.982,16.982a136.473,136.473,0,0,0,19.727,1.251c39.284-.188,78.574-1.13,117.85-.694C860.276,555.168,891.334,557.128,922.4,558.37Z" transform="translate(-99.972 -393.015)" style="fill:#472208"/><path d="M921.993,496.434c-8.1,1.5-16.2,4.3-24.291,4.29-61.354-.047-122.709-.565-184.062-1.167-7.83-.077-15.632-1.8-23.475-2.195-9.95-.5-13.21-5.533-11.212-14.809,10.371-7.966,22.95-6.6,34.525-6.652,55.387-.267,110.779.55,166.17.744,9.391.032,18.778-1.388,28.179-1.614,12.447-.3,15.351,3.006,14.8,15.784C922.541,492.693,922.209,494.561,921.993,496.434Z" transform="translate(-99.972 -393.015)" style="fill:#f7b2b2"/><path d="M922.4,558.37c-31.066-1.242-62.124-3.2-93.2-3.547-39.276-.436-78.566.506-117.85.694a136.473,136.473,0,0,1-19.727-1.251c-11.178-1.584-13.985-5.3-13.982-16.982,13.329-6.5,27.143-8.784,41.926-6.01,5.795,1.087,11.929.451,17.908.457q83.586.077,167.172.1c16.734.008,21.888,6.447,18.284,22.808C922.661,555.862,922.573,557.125,922.4,558.37Z" transform="translate(-99.972 -393.015)" style="fill:#f6b3b2"/><path d="M921.988,608.223q-114.476.549-228.953,1.042c-13.02.042-15.965-4.21-14.326-18.964,10.567-1.256,21.128-3.543,31.7-3.6,62.012-.32,124.026-.106,186.04-.117a148.213,148.213,0,0,0,16.964-.581c9.779-1.13,12.034.585,11.109,10.261C924.138,600.3,922.86,604.24,921.988,608.223Z" transform="translate(-99.972 -393.015)" style="fill:#f8b3b3"/><path d="M831.945,432.639c-8.187,13.3-28.093,21.223-43.434,17.266-9.039-2.332-14.031-8.776-17.193-17.05-1.093-13.063,2.742-24.224,13.113-32.593,17.471-14.1,39.215-6.833,44.52,14.9C830.349,420.894,830.968,426.81,831.945,432.639Z" transform="translate(-99.972 -393.015)" style="fill:#bc2b2b"/></svg>